<?xml version="1.0" encoding="utf-8"?>
<!-- Generator: Adobe Illustrator 27.0.1, SVG Export Plug-In . SVG Version: 6.00 Build 0)  -->
<svg version="1.1" id="Layer_1" xmlns="http://www.w3.org/2000/svg" xmlns:xlink="http://www.w3.org/1999/xlink" x="0px" y="0px"
	 viewBox="0 0 20 20" style="enable-background:new 0 0 20 20;" xml:space="preserve">
<path d="M10,15.9c-0.2,0-0.5,0-0.7-0.1c-0.2-0.1-0.4-0.2-0.6-0.4L0.5,7.1C0.2,6.8,0,6.4,0,5.9c0-0.5,0.2-0.9,0.5-1.3
	c0.3-0.3,0.7-0.5,1.3-0.5S2.7,4.3,3,4.6l7,7l7-7c0.3-0.3,0.7-0.5,1.3-0.5c0.5,0,0.9,0.2,1.3,0.5C19.8,4.9,20,5.4,20,5.9
	c0,0.5-0.2,0.9-0.5,1.3l-8.3,8.3c-0.2,0.2-0.4,0.3-0.6,0.4C10.5,15.8,10.2,15.9,10,15.9z"/>
</svg>
