<?xml version="1.0" encoding="utf-8"?>
<!-- Generator: Adobe Illustrator 27.0.1, SVG Export Plug-In . SVG Version: 6.00 Build 0)  -->
<svg version="1.1" id="Layer_1" xmlns="http://www.w3.org/2000/svg" xmlns:xlink="http://www.w3.org/1999/xlink" x="0px" y="0px"
	 viewBox="0 0 100 72" style="enable-background:new 0 0 100 72;" xml:space="preserve">
<path id="XMLID_162_" d="M3.6,21.8h15.9L32.7,2c1.1-1.6,3.3-2.1,5-1c1.6,1.1,2.1,3.3,1,5L28.1,21.8h43.8L61.3,6
	c-1.1-1.6-0.7-3.9,1-5c1.6-1.1,3.9-0.7,5,1l13.2,19.8h15.9c2,0,3.6,1.6,3.6,3.6c0,2-1.6,3.6-3.6,3.6h-3.9l-2.8,33
	c-0.5,5.5-5.1,9.8-10.7,9.8H20.8c-5.5,0-10.2-4.3-10.7-9.8L7.4,29H3.6c-2,0-3.6-1.6-3.6-3.6C0,23.4,1.6,21.8,3.6,21.8z M64.3,57.5
	c0,2,1.6,3.6,3.6,3.6c2,0,3.6-1.6,3.6-3.6V39.7c0-2-1.6-3.6-3.6-3.6c-2,0-3.6,1.6-3.6,3.6V57.5z M46.4,57.5c0,2,1.6,3.6,3.6,3.6
	s3.6-1.6,3.6-3.6V39.7c0-2-1.6-3.6-3.6-3.6s-3.6,1.6-3.6,3.6V57.5z M28.6,57.5c0,2,1.6,3.6,3.6,3.6s3.6-1.6,3.6-3.6V39.7
	c0-2-1.6-3.6-3.6-3.6s-3.6,1.6-3.6,3.6V57.5z"/>
</svg>
