<?xml version="1.0" encoding="utf-8"?>
<!-- Generator: Adobe Illustrator 27.0.1, SVG Export Plug-In . SVG Version: 6.00 Build 0)  -->
<svg version="1.1" id="Layer_1" xmlns="http://www.w3.org/2000/svg" xmlns:xlink="http://www.w3.org/1999/xlink" x="0px" y="0px"
	 viewBox="0 0 100 100" style="enable-background:new 0 0 100 100;" xml:space="preserve">
<style type="text/css">
	.st0{fill:#C2D7B0;}
</style>
<path id="XMLID_162_" class="st0" d="M3.6,37.1h15.9l13.2-19.8c1.1-1.6,3.3-2.1,5-1c1.6,1.1,2.1,3.3,1,5L28.1,37.1h43.8L61.3,21.3
	c-1.1-1.6-0.7-3.9,1-5c1.6-1.1,3.9-0.7,5,1l13.2,19.8h15.9c2,0,3.6,1.6,3.6,3.6s-1.6,3.6-3.6,3.6h-3.9l-2.8,33
	c-0.5,5.5-5.1,9.8-10.7,9.8H20.9c-5.5,0-10.2-4.3-10.7-9.8l-2.8-33H3.6c-2,0-3.6-1.6-3.6-3.6S1.6,37.1,3.6,37.1z M64.3,72.8
	c0,2,1.6,3.6,3.6,3.6s3.6-1.6,3.6-3.6V55c0-2-1.6-3.6-3.6-3.6S64.3,53,64.3,55V72.8z M46.5,72.8c0,2,1.6,3.6,3.6,3.6
	s3.6-1.6,3.6-3.6V55c0-2-1.6-3.6-3.6-3.6S46.5,53,46.5,55V72.8z M28.6,72.8c0,2,1.6,3.6,3.6,3.6s3.6-1.6,3.6-3.6V55
	c0-2-1.6-3.6-3.6-3.6S28.6,53,28.6,55V72.8z"/>
<path class="st0" d="M86.2,7.9c-6.6,0-12,5.4-12,12c0,6.6,5.4,12,12,12c6.6,0,12-5.4,12-12C98.2,13.3,92.8,7.9,86.2,7.9z M88,24.4
	h-2.3v-7.1h-1.3v-2H88V24.4z"/>
</svg>
