<?xml version="1.0" encoding="utf-8"?>
<!-- Generator: Adobe Illustrator 27.0.1, SVG Export Plug-In . SVG Version: 6.00 Build 0)  -->
<svg version="1.1" id="Layer_1" xmlns="http://www.w3.org/2000/svg" xmlns:xlink="http://www.w3.org/1999/xlink" x="0px" y="0px"
	 viewBox="0 0 326 60" style="enable-background:new 0 0 326 60;" xml:space="preserve">
<style type="text/css">
	.st0{fill:#C2D7B0;}
</style>
<g>
	<g>
		<path class="st0" d="M318.5,46.3v-7.2c0-0.2,0.1-0.3,0.3-0.3h6c0.2,0,0.3,0.1,0.3,0.3v14.7c0,0.2-0.1,0.3-0.3,0.3h-19.5
			c-0.2,0-0.3-0.1-0.3-0.3v-6.9c0-0.2,0.1-0.3,0.3-0.3h12.9C318.4,46.5,318.5,46.4,318.5,46.3z"/>
		<path class="st0" d="M310,31.4l-4.8-1.7c-0.1,0-0.2-0.1-0.2-0.3v-7.9c0-0.2,0.2-0.3,0.4-0.2l11.9,6.6c0,0,0.1,0,0.1,0h7.4
			c0.2,0,0.3,0.1,0.3,0.3v6.9c0,0.2-0.1,0.3-0.3,0.3h-7.4c0,0-0.1,0-0.1,0L305.4,42c-0.2,0.1-0.4,0-0.4-0.2v-7.9
			c0-0.1,0.1-0.2,0.2-0.3l4.8-1.7C310.2,31.8,310.2,31.5,310,31.4z"/>
		<circle class="st0" cx="321.8" cy="22" r="3.3"/>
	</g>
	<path class="st0" d="M34.6,27.7c0,0,11.5,1.8,11.5,12.6c0,7.9-6.5,14.4-24.5,14.4c-10.2,0-19.3-0.6-21.2-0.7
		c-0.2,0-0.4-0.2-0.4-0.4V3.9c0-0.2,0.2-0.4,0.4-0.4c1.9-0.1,11-0.7,20.9-0.7c16.2,0,22.7,6.5,22.7,14c0,8.6-9.4,10.4-9.4,10.4V27.7
		z M18.8,21.9c0,0.2,0.2,0.4,0.4,0.4h2.1c2.5,0,4-1.4,4-3.2c0-1.8-1.4-3.2-4-3.2h-2.1c-0.2,0-0.4,0.2-0.4,0.4V21.9z M26,38.1
		c0-2.2-1.4-3.6-4.3-3.6h-2.5c-0.2,0-0.4,0.2-0.4,0.4v6.4c0,0.2,0.2,0.4,0.4,0.4h2.5C24.5,41.7,26,40.3,26,38.1z"/>
	<path class="st0" d="M76.2,54c-0.1,0-0.3-0.1-0.4-0.2l-8.5-16.3h-0.7v16.2c0,0.2-0.2,0.4-0.4,0.4H48.2c-0.2,0-0.4-0.2-0.4-0.4V4
		c0-0.2,0.2-0.4,0.4-0.4c1.9-0.1,10.9-0.7,20.5-0.7c15.8,0,23,7.2,23,17.6c0,9-4.9,12.9-6.2,13.8c-0.2,0.1-0.2,0.4-0.1,0.5
		l11.7,18.5c0.2,0.3,0,0.6-0.3,0.6H76.2z M68.7,24.5c2.5,0,4.3-1.8,4.3-4s-1.8-4-4.3-4H67c-0.2,0-0.4,0.2-0.4,0.4v7.1
		c0,0.2,0.2,0.4,0.4,0.4H68.7z"/>
	<path class="st0" d="M124.3,30.6V4c0-0.2,0.2-0.4,0.4-0.4h17.9c0.2,0,0.4,0.2,0.4,0.4v26c0,14-11.5,25.5-25.4,25
		c-13.9-0.4-23.5-10.4-23.5-24.5V4c0-0.2,0.2-0.4,0.4-0.4h17.9c0.2,0,0.4,0.2,0.4,0.4v26.6c0,4,2.5,6.5,5.8,6.5
		C121.8,37.1,124.3,34.5,124.3,30.6z"/>
	<path class="st0" d="M165,33.2v20.4c0,0.2-0.2,0.4-0.4,0.4h-17.9c-0.2,0-0.4-0.2-0.4-0.4V4c0-0.2,0.2-0.4,0.4-0.4h20.3
		c0.1,0,0.3,0.1,0.3,0.2l11.4,20.8c0.2,0.4,0.7,0.2,0.7-0.2V4c0-0.2,0.2-0.4,0.4-0.4h17.9c0.2,0,0.4,0.2,0.4,0.4v49.6
		c0,0.2-0.2,0.4-0.4,0.4h-20.3c-0.1,0-0.3-0.1-0.3-0.2L165.7,33C165.5,32.7,165,32.8,165,33.2z"/>
	<path class="st0" d="M249.7,34.4c-1.7,0.6-3.5,0-4.4-1.6c-0.2-0.3-0.3-0.7-0.3-1.1c-0.1,0-0.1,0.1-0.2,0.1
		c-1.6,0.8-3.5,0.2-4.4-1.4c-1.5,0.8-3.4,0.3-4.3-1.2c-0.3,0.7-0.7,1.4-1.1,2.1c-0.1,0.2-0.2,0.4-0.4,0.5c-0.1,0.1-0.2,0.3-0.3,0.4
		c-0.2,0.3-0.4,0.5-0.7,0.8c-0.1,0.1-0.2,0.2-0.3,0.3c-0.2,0.2-0.3,0.3-0.5,0.4c-0.1,0.1-0.1,0.1-0.2,0.2c-0.1,0.1-0.3,0.2-0.4,0.3
		c-0.2,0.1-0.4,0.2-0.5,0.4c-0.2,0.1-0.3,0.2-0.5,0.3c-0.2,0.1-0.5,0.2-0.7,0.3c-0.5,0.2-1,0.4-1.5,0.5c-0.1,0-0.1,0-0.2,0
		c-3.2,0.7-6.2-0.7-8-3.4c-0.7-1-1.1-2.2-1.4-3.5c-0.3-1.8,0-3.6,0.9-5.1c0-0.1,0.1-0.1,0.1-0.2c0.3-0.4,0.6-0.8,0.9-1.2
		c0.2-0.2,0.4-0.4,0.6-0.6c0.1-0.1,0.3-0.2,0.4-0.4c0.2-0.1,0.3-0.3,0.5-0.4c0,0,0,0,0,0c0.2-0.1,0.3-0.2,0.5-0.3
		c0.1-0.1,0.2-0.1,0.3-0.1c0.2-0.1,0.4-0.2,0.6-0.3c0.1-0.1,0.3-0.1,0.4-0.2c0.3-0.1,0.6-0.3,1-0.4c0.2-0.1,0.3-0.1,0.5-0.2
		c0.2-0.1,0.4-0.1,0.6-0.2c0.8-0.2,1.6-0.3,2.3-0.4c-1.1-1.3-1-3.3,0.3-4.5c-1.2-1.3-1.1-3.4,0.2-4.6c0.1-0.1,0.1-0.1,0.2-0.2
		c-0.3-0.2-0.7-0.4-0.9-0.7c-1.2-1.3-1.1-3.3,0-4.7c0,0,0.5-0.7,1.1-0.8c0,0-0.1,0-0.1,0c0,0-0.1,0-0.1,0c-2.9-0.3-9.2-0.4-16.3,3.9
		c0,0-0.1,0.1-0.1,0.1c-0.5,0.3-1.1,0.7-1.6,1.1c-11.6,8.1-14.2,23.1-6.3,34.5s22.9,14,34.5,5.8c0.5-0.4,1.1-0.8,1.6-1.2
		c0,0,0.1-0.1,0.1-0.1c7.1-5.6,8.8-11.6,9.2-13.9c0-0.1,0-0.2,0-0.2l0,0C250.6,34.2,249.7,34.4,249.7,34.4z"/>
	<path class="st0" d="M272.2,20.9h10.7c0.2,0,0.4-0.2,0.4-0.4V4c0-0.2,0.2-0.4,0.4-0.4h17.9c0.2,0,0.4,0.2,0.4,0.4v49.6
		c0,0.2-0.2,0.4-0.4,0.4h-17.9c-0.2,0-0.4-0.2-0.4-0.4V37.1c0-0.2-0.2-0.4-0.4-0.4h-10.7c-0.2,0-0.4,0.2-0.4,0.4v16.5
		c0,0.2-0.2,0.4-0.4,0.4h-17.9c-0.2,0-0.4-0.2-0.4-0.4V4c0-0.2,0.2-0.4,0.4-0.4h17.9c0.2,0,0.4,0.2,0.4,0.4v16.5
		C271.8,20.7,272,20.9,272.2,20.9z"/>
</g>
</svg>
