<?xml version="1.0" encoding="utf-8"?>
<!-- Generator: Adobe Illustrator 27.0.1, SVG Export Plug-In . SVG Version: 6.00 Build 0)  -->
<svg version="1.1" id="Layer_1" xmlns="http://www.w3.org/2000/svg" xmlns:xlink="http://www.w3.org/1999/xlink" x="0px" y="0px"
	 viewBox="0 0 50 50" style="enable-background:new 0 0 50 50;" xml:space="preserve">
<path d="M25,0.1c-13.8,0-25,11.2-25,25c0,13.8,11.2,25,25,25c13.8,0,25-11.2,25-25C50,11.3,38.8,0.1,25,0.1z M30.8,35.4l-8.9-6.5
	c-0.3-0.2-0.5-0.6-0.5-1V11c0-0.7,0.5-1.2,1.2-1.2h4.8c0.7,0,1.2,0.5,1.2,1.2v13.9l6.4,4.7c0.5,0.4,0.7,1.1,0.3,1.7l-2.8,3.9
	C32.1,35.7,31.3,35.8,30.8,35.4z"/>
</svg>
