<?xml version="1.0" encoding="utf-8"?>
<!-- Generator: Adobe Illustrator 27.0.1, SVG Export Plug-In . SVG Version: 6.00 Build 0)  -->
<svg version="1.1" id="Layer_1" xmlns="http://www.w3.org/2000/svg" xmlns:xlink="http://www.w3.org/1999/xlink" x="0px" y="0px"
	 viewBox="0 0 50 50" style="enable-background:new 0 0 50 50;" xml:space="preserve">
<style type="text/css">
	.st0{display:none;}
	.st1{fill:#C2D7B0;}
</style>
<path class="st0" d="M25,0.1c-13.8,0-25,11.2-25,25c0,13.8,11.2,25,25,25c13.8,0,25-11.2,25-25C50,11.3,38.8,0.1,25,0.1z M30.8,35.4
	l-8.9-6.5c-0.3-0.2-0.5-0.6-0.5-1V11c0-0.7,0.5-1.2,1.2-1.2h4.8c0.7,0,1.2,0.5,1.2,1.2v13.9l6.4,4.7c0.5,0.4,0.7,1.1,0.3,1.7
	l-2.8,3.9C32.1,35.7,31.3,35.8,30.8,35.4z"/>
<path class="st1" d="M24.9,0.1C11.2,0.1,0,11.3,0,25.1C0,38.8,11.2,50,24.9,50c13.8,0,24.9-11.2,24.9-24.9
	C49.9,11.3,38.7,0.1,24.9,0.1z M36.5,32.2c0.8,0.8,0.8,2.1,0,3L35,36.6c-0.8,0.8-2.1,0.8-3,0L25.4,30l-6.6,6.7c-0.8,0.8-2.2,0.8-3,0
	l-1.5-1.5c-0.8-0.8-0.8-2.2,0-3l6.6-6.7l-6.6-6.7c-0.8-0.8-0.8-2.1,0-3l1.5-1.5c0.8-0.8,2.1-0.8,3,0l6.6,6.7l6.7-6.7
	c0.8-0.8,2.1-0.8,3,0l1.5,1.5c0.8,0.8,0.8,2.1,0,3l-6.7,6.7L36.5,32.2z"/>
</svg>
